<?xml version="1.0" encoding="UTF-8" standalone="no"?>
<!-- Created with Inkscape (http://www.inkscape.org/) -->

<svg
   xmlns:dc="http://purl.org/dc/elements/1.1/"
   xmlns:cc="http://creativecommons.org/ns#"
   xmlns:rdf="http://www.w3.org/1999/02/22-rdf-syntax-ns#"
   xmlns:svg="http://www.w3.org/2000/svg"
   xmlns="http://www.w3.org/2000/svg"
   xmlns:sodipodi="http://sodipodi.sourceforge.net/DTD/sodipodi-0.dtd"
   xmlns:inkscape="http://www.inkscape.org/namespaces/inkscape"
   width="120"
   height="42"
   id="svg2759"
   sodipodi:version="0.32"
   inkscape:version="0.91 r13725"
   version="1.0"
   sodipodi:docname="by-nc-nd.svg"
   inkscape:output_extension="org.inkscape.output.svg.inkscape"
   inkscape:export-filename="/Users/jhh0085/Dropbox/occupancy/images/by-nc-nd.png"
   inkscape:export-xdpi="600"
   inkscape:export-ydpi="600">
  <defs
     id="defs2761" />
  <sodipodi:namedview
     id="base"
     pagecolor="#ffffff"
     bordercolor="#8b8b8b"
     borderopacity="1"
     gridtolerance="10000"
     guidetolerance="10"
     objecttolerance="10"
     inkscape:pageopacity="0.0"
     inkscape:pageshadow="2"
     inkscape:zoom="3.0415931"
     inkscape:cx="65.862904"
     inkscape:cy="18.859225"
     inkscape:document-units="px"
     inkscape:current-layer="layer1"
     width="120px"
     height="42px"
     inkscape:showpageshadow="false"
     inkscape:window-width="1198"
     inkscape:window-height="624"
     inkscape:window-x="36"
     inkscape:window-y="17"
     showgrid="false"
     inkscape:window-maximized="0"
     fit-margin-top="0"
     fit-margin-left="0"
     fit-margin-right="0"
     fit-margin-bottom="0" />
  <metadata
     id="metadata2764">
    <rdf:RDF>
      <cc:Work
         rdf:about="">
        <dc:format>image/svg+xml</dc:format>
        <dc:type
           rdf:resource="http://purl.org/dc/dcmitype/StillImage" />
        <dc:title></dc:title>
      </cc:Work>
    </rdf:RDF>
  </metadata>
  <g
     inkscape:label="Layer 1"
     inkscape:groupmode="layer"
     id="layer1"
     transform="translate(-1.0720192e-5,0)">
    <g
       transform="matrix(0.9937728,0,0,0.9936696,-437.11979,0)"
       id="g361"
       inkscape:export-filename="/mnt/hgfs/Bov/Documents/Work/2007/cc/identity/srr buttons/big/by-nc-nd.png"
       inkscape:export-xdpi="300.23013"
       inkscape:export-ydpi="300.23013">
      <path
         id="path3817_4_"
         nodetypes="ccccccc"
         d="m 443.28955,0.44873 114.06348,0.20312 c 1.59375,0 3.01758,-0.23682 3.01758,3.18018 l -0.13965,37.56689 -119.82032,0 0,-37.70654 c 0,-1.68457 0.16309,-3.24365 2.87891,-3.24365 z"
         style="fill:#aab2ab"
         inkscape:connector-curvature="0" />
      <path
         d="M 558.3501,0 442.12061,0 c -1.24707,0 -2.26172,1.01465 -2.26172,2.26123 l 0,39.49609 c 0,0.28174 0.22852,0.51025 0.51074,0.51025 l 119.73047,0 c 0.28223,0 0.51074,-0.22852 0.51074,-0.51025 l 0,-39.49609 C 560.61084,1.01465 559.59619,0 558.3501,0 Z m -116.22949,1.02148 116.22949,0 c 0.68359,0 1.23926,0.55615 1.23926,1.23975 0,0 0,15.89111 0,27.3877 l -83.07324,0 c -3.04492,5.50537 -8.91211,9.24365 -15.64453,9.24365 -6.73438,0 -12.59961,-3.73486 -15.64258,-9.24365 l -4.34863,0 c 0,-11.49658 0,-27.3877 0,-27.3877 -10e-6,-0.68359 0.55663,-1.23975 1.24023,-1.23975 z"
         id="path364"
         inkscape:connector-curvature="0" />
      <g
         id="g5908_4_"
         transform="matrix(0.872921,0,0,0.872921,50.12536,143.2144)">
        <path
           id="path5906_4_"
           cx="296.35416"
           ry="22.939548"
           cy="264.3577"
           type="arc"
           rx="22.939548"
           d="m 486.26709,-141.53052 c 0.006,8.68024 -7.02789,15.72095 -15.70807,15.72711 -8.68024,0.005 -15.7215,-7.02783 -15.72711,-15.70807 0,-0.007 0,-0.0129 0,-0.019 -0.006,-8.68134 7.02783,-15.72205 15.70807,-15.72711 8.68134,-0.005 15.72266,7.02789 15.72711,15.70813 0,0.006 0,0.0123 0,0.019 z"
           style="fill:#ffffff"
           inkscape:connector-curvature="0" />
        <g
           id="g5706_4_"
           transform="translate(-289.6157,99.0653)">
          <path
             id="path5708_4_"
             d="m 772.94281,-253.39801 c 3.4848,3.48541 5.22778,7.75336 5.22778,12.80219 0,5.04938 -1.71277,9.27148 -5.13831,12.66797 -3.63586,3.57599 -7.93182,5.36371 -12.89001,5.36371 -4.89777,0 -9.11987,-1.77258 -12.664,-5.31952 -3.54639,-3.54584 -5.31842,-7.78302 -5.31842,-12.71216 0,-4.92853 1.77203,-9.19592 5.31842,-12.80219 3.45465,-3.48706 7.6767,-5.22949 12.664,-5.22949 5.04883,0 9.31458,1.74243 12.80054,5.22949 z m -23.11859,2.3443 c -2.94672,2.97638 -4.4201,6.46289 -4.4201,10.4624 0,3.99829 1.45886,7.4552 4.37427,10.37115 2.91766,2.91595 6.38904,4.37421 10.4176,4.37421 4.02856,0 7.53015,-1.47278 10.50708,-4.41895 2.82593,-2.73584 4.23889,-6.17706 4.23889,-10.32642 0,-4.11804 -1.43646,-7.61353 -4.30823,-10.48474 -2.87067,-2.87067 -6.34991,-4.30658 -10.43774,-4.30658 -4.08783,0 -7.54694,1.44319 -10.37177,4.32893 z m 7.7539,8.70319 c -0.44971,-0.98169 -1.12317,-1.47229 -2.02264,-1.47229 -1.58856,0 -2.38287,1.06952 -2.38287,3.20856 0,2.13953 0.79431,3.2085 2.38287,3.2085 1.04938,0 1.79895,-0.52075 2.24866,-1.56451 l 2.20276,1.17297 c -1.05048,1.86548 -2.62567,2.79907 -4.72552,2.79907 -1.61987,0 -2.9176,-0.49677 -3.89203,-1.48962 -0.97552,-0.99341 -1.46332,-2.36273 -1.46332,-4.10797 0,-1.71558 0.50342,-3.07703 1.50806,-4.08557 1.00464,-1.00854 2.25763,-1.51196 3.75781,-1.51196 2.2207,0 3.80927,0.87427 4.77136,2.62231 l -2.38514,1.22051 z m 10.36396,0 c -0.45087,-0.98169 -1.11206,-1.47229 -1.98242,-1.47229 -1.62103,0 -2.43213,1.06952 -2.43213,3.20856 0,2.13953 0.8111,3.2085 2.43213,3.2085 1.05164,0 1.78772,-0.52075 2.20728,-1.56451 l 2.25201,1.17297 c -1.04828,1.86548 -2.62122,2.79907 -4.71771,2.79907 -1.61768,0 -2.91205,-0.49677 -3.88647,-1.48962 -0.97217,-0.99341 -1.4599,-2.36273 -1.4599,-4.10797 0,-1.71558 0.49445,-3.07703 1.4834,-4.08557 0.98785,-1.00854 2.2453,-1.51196 3.7735,-1.51196 2.21619,0 3.80365,0.87427 4.76129,2.62231 l -2.43098,1.22051 z"
             inkscape:connector-curvature="0" />
        </g>
      </g>
      <g
         enable-background="new    "
         id="g370">
        <path
           d="m 488.25342,32.95605 c 0.31738,0 0.6084,0.02832 0.87012,0.08398 0.26172,0.05566 0.48535,0.14746 0.67285,0.27539 0.18652,0.12695 0.33105,0.29688 0.43457,0.50781 0.10254,0.21191 0.1543,0.47266 0.1543,0.78418 0,0.33594 -0.0762,0.61523 -0.22949,0.83887 -0.15234,0.22461 -0.37793,0.40723 -0.67773,0.55078 0.41211,0.11816 0.71973,0.3252 0.92285,0.62109 0.20312,0.29589 0.30469,0.65234 0.30469,1.06934 0,0.33594 -0.0654,0.62695 -0.19629,0.87305 -0.13086,0.24512 -0.30762,0.44629 -0.52832,0.60156 -0.22168,0.15625 -0.47461,0.27148 -0.75781,0.3457 -0.28418,0.0752 -0.5752,0.1123 -0.875,0.1123 l -3.23633,0 0,-6.66406 3.14159,0 0,10e-6 z m -0.18653,2.69532 c 0.26074,0 0.47656,-0.0625 0.64453,-0.18652 0.16797,-0.12402 0.25195,-0.3252 0.25195,-0.60449 0,-0.15527 -0.0283,-0.2832 -0.084,-0.38184 -0.0566,-0.09961 -0.13086,-0.17676 -0.22461,-0.2334 -0.0937,-0.05566 -0.20117,-0.09473 -0.32227,-0.11621 -0.1211,-0.02148 -0.24805,-0.03223 -0.37891,-0.03223 l -1.37305,0 0,1.55469 1.48634,0 z m 0.085,2.82812 c 0.14355,0 0.28027,-0.01367 0.41113,-0.04199 0.13086,-0.02832 0.24609,-0.0752 0.34668,-0.13965 0.0996,-0.06543 0.17871,-0.1543 0.23828,-0.2666 0.0596,-0.11133 0.0889,-0.25488 0.0889,-0.42871 0,-0.3418 -0.0967,-0.58594 -0.29004,-0.73242 -0.19336,-0.14551 -0.44824,-0.21875 -0.7666,-0.21875 l -1.59961,0 0,1.82812 1.57129,0 z"
           id="path372"
           style="fill:#ffffff"
           inkscape:connector-curvature="0" />
        <path
           d="m 490.96436,32.95605 1.64355,0 1.56055,2.63184 1.55078,-2.63184 1.63379,0 -2.47363,4.10645 0,2.55762 -1.46875,0 0,-2.59473 -2.44629,-4.06934 z"
           id="path374"
           style="fill:#ffffff"
           inkscape:connector-curvature="0" />
      </g>
      <g
         enable-background="new    "
         id="g376">
        <path
           d="m 512.83057,32.95605 2.78418,4.4707 0.0156,0 0,-4.4707 1.375,0 0,6.66406 -1.46582,0 -2.77344,-4.46191 -0.0186,0 0,4.46191 -1.375,0 0,-6.66406 1.45801,0 z"
           id="path378"
           style="fill:#ffffff"
           inkscape:connector-curvature="0" />
        <path
           d="m 522.56885,34.73145 c -0.0869,-0.14062 -0.19629,-0.26367 -0.32715,-0.36914 -0.13086,-0.10547 -0.27832,-0.18848 -0.44336,-0.24707 -0.16504,-0.05957 -0.33789,-0.08887 -0.51758,-0.08887 -0.33008,0 -0.61035,0.06348 -0.84082,0.19141 -0.23047,0.12695 -0.41699,0.29785 -0.55957,0.5127 -0.14355,0.21484 -0.24805,0.45898 -0.31348,0.73242 -0.0654,0.27344 -0.0977,0.55664 -0.0977,0.84863 0,0.28027 0.0322,0.55273 0.0977,0.81641 0.0654,0.26465 0.16992,0.50293 0.31348,0.71387 0.14258,0.21191 0.3291,0.38086 0.55957,0.50879 0.23047,0.12793 0.51074,0.19141 0.84082,0.19141 0.44727,0 0.79785,-0.13672 1.0498,-0.41113 0.25195,-0.27344 0.40625,-0.63477 0.46191,-1.08301 l 1.41895,0 c -0.0371,0.41699 -0.13379,0.79395 -0.28906,1.12988 -0.15527,0.33691 -0.36133,0.62305 -0.61621,0.86035 -0.25488,0.2373 -0.55371,0.41797 -0.89648,0.54297 -0.3418,0.125 -0.71875,0.1875 -1.12891,0.1875 -0.51074,0 -0.96973,-0.08887 -1.37793,-0.2666 -0.40723,-0.17676 -0.75195,-0.42188 -1.03223,-0.73242 -0.28125,-0.31152 -0.49609,-0.67773 -0.64551,-1.09766 -0.14941,-0.4209 -0.22461,-0.87305 -0.22461,-1.35938 0,-0.49805 0.0752,-0.95996 0.22461,-1.38672 0.14941,-0.42676 0.36426,-0.79883 0.64551,-1.11621 0.28027,-0.31738 0.625,-0.56641 1.03223,-0.74707 0.4082,-0.18066 0.86719,-0.27051 1.37793,-0.27051 0.36719,0 0.71387,0.05273 1.04102,0.15918 0.32617,0.10547 0.61914,0.25977 0.87695,0.46289 0.25879,0.20215 0.47168,0.45312 0.63965,0.75195 0.16797,0.29883 0.27344,0.6416 0.31738,1.02734 l -1.41895,0 c -0.0244,-0.16797 -0.0811,-0.32227 -0.16796,-0.46191 z"
           id="path380"
           style="fill:#ffffff"
           inkscape:connector-curvature="0" />
      </g>
      <g
         enable-background="new    "
         id="g382">
        <path
           d="m 538.83057,32.95605 2.78418,4.4707 0.0156,0 0,-4.4707 1.375,0 0,6.66406 -1.46582,0 -2.77344,-4.46191 -0.0186,0 0,4.46191 -1.375,0 0,-6.66406 1.45801,0 z"
           id="path384"
           style="fill:#ffffff"
           inkscape:connector-curvature="0" />
        <path
           d="m 547.16748,32.95605 c 0.43066,0 0.83008,0.06836 1.20117,0.20508 0.37109,0.13672 0.69141,0.34277 0.96289,0.61621 0.27051,0.27344 0.48242,0.61621 0.63477,1.02637 0.15332,0.41113 0.22949,0.89355 0.22949,1.44727 0,0.48535 -0.0625,0.93262 -0.18652,1.34375 -0.125,0.41016 -0.31348,0.76562 -0.56543,1.06348 -0.25293,0.29883 -0.56738,0.53418 -0.94434,0.70508 -0.37696,0.1709 -0.82031,0.25684 -1.33203,0.25684 l -2.87793,0 0,-6.66406 2.87793,0 0,-2e-5 z m -0.10254,5.42969 c 0.21191,0 0.41699,-0.03418 0.61621,-0.10254 0.19922,-0.06836 0.37695,-0.18164 0.53223,-0.34082 0.15527,-0.1582 0.28027,-0.36426 0.37402,-0.61914 0.0928,-0.25488 0.13965,-0.56641 0.13965,-0.93262 0,-0.33594 -0.0322,-0.63867 -0.0977,-0.90918 -0.0654,-0.27051 -0.17285,-0.50195 -0.32227,-0.69434 -0.14942,-0.19239 -0.34668,-0.34082 -0.59277,-0.44336 -0.24609,-0.10254 -0.5498,-0.15332 -0.91016,-0.15332 l -1.0459,0 0,4.19531 1.30665,0 0,10e-6 z"
           id="path386"
           style="fill:#ffffff"
           inkscape:connector-curvature="0" />
      </g>
      <g
         id="g6370_1_"
         transform="translate(286.1464,208.0498)">
        <g
           id="g7610_1_"
           transform="matrix(1.146822,0,0,1.146822,-67.14005,-41.89676)">
          <path
             id="path6372_1_"
             cx="475.97119"
             ry="29.209877"
             cy="252.08646"
             type="arc"
             rx="29.209877"
             d="m 269.61823,-131.7348 c 0.004,4.82693 -3.90601,8.74188 -8.73337,8.74573 -4.82654,0.003 -8.74191,-3.90686 -8.7453,-8.73297 0,-0.005 0,-0.009 0,-0.0128 -0.003,-4.82736 3.90686,-8.74231 8.73337,-8.74615 4.82651,-0.003 8.74188,3.90686 8.7453,8.73294 0,0.004 0,0.009 0,0.0132 z"
             style="fill:#ffffff"
             inkscape:connector-curvature="0" />
          <path
             id="path6374_1_"
             d="m 260.86526,-141.90982 c 2.85349,0 5.26419,0.98352 7.23383,2.95013 1.9696,1.9675 2.95483,4.37607 2.95483,7.22488 0,2.84839 -0.9682,5.23141 -2.90375,7.14822 -2.05478,2.01816 -4.48337,3.02637 -7.28491,3.02637 -2.76666,0 -5.15265,-1.00055 -7.15634,-3.00168 -2.00366,-2.00024 -3.00507,-4.39178 -3.00507,-7.17291 0,-2.78156 1.0014,-5.19012 3.00507,-7.22488 1.95258,-1.96661 4.3386,-2.95013 7.15634,-2.95013 z m -7.87246,7.44116 c -0.30316,0.85876 -0.45557,1.7699 -0.45557,2.73386 0,2.25528 0.82428,4.2049 2.47116,5.85049 1.64685,1.64432 3.60797,2.46689 5.88327,2.46689 2.27444,0 4.25256,-0.83066 5.9335,-2.49286 0.56287,-0.5437 1.02698,-1.13681 1.39056,-1.77972 l -3.83618,-1.70776 c -0.2597,1.2905 -1.41013,2.16205 -2.79984,2.26425 l 0,1.56894 -1.16833,0 0,-1.56894 c -1.14191,-0.0128 -2.24463,-0.47986 -3.0885,-1.21814 l 1.40161,-1.41312 c 0.67444,0.63525 1.3497,0.92007 2.27106,0.92007 0.59692,0 1.25858,-0.23331 1.25858,-1.0112 0,-0.27545 -0.10645,-0.46707 -0.2742,-0.61139 l -0.97073,-0.43088 -1.20749,-0.5386 c -0.59778,-0.26654 -1.10446,-0.49091 -1.61197,-0.71741 l -5.19693,-2.31448 z m 7.89886,-5.60995 c -2.31021,0 -4.26196,0.81366 -5.85858,2.44223 -0.4343,0.43854 -0.81238,0.89624 -1.13254,1.37439 l 3.88898,1.73203 c 0.35168,-1.07935 1.37692,-1.73416 2.62186,-1.80655 l 0,-1.56897 1.16833,0 0,1.56897 c 0.80469,0.0388 1.68689,0.25928 2.5563,0.93286 l -1.33691,1.37439 c -0.49304,-0.35001 -1.11551,-0.5961 -1.73883,-0.5961 -0.50583,0 -1.22028,0.155 -1.22028,0.79068 0,0.0966 0.0332,0.18179 0.092,0.25842 l 1.30115,0.57819 0.88049,0.39258 c 0.56287,0.25162 1.10104,0.49005 1.63324,0.7272 l 5.21399,2.32129 c 0.172,-0.6825 0.25885,-1.40887 0.25885,-2.1778 0,-2.32343 -0.81491,-4.29089 -2.44476,-5.90158 -1.61364,-1.62857 -3.57391,-2.44223 -5.88327,-2.44223 z"
             inkscape:connector-curvature="0" />
        </g>
      </g>
      <g
         id="g6394_1_"
         transform="matrix(0.624995,0,0,0.624995,312.8511,316.9328)">
        <path
           id="path6396_1_"
           cx="475.97119"
           ry="29.209877"
           cy="252.08646"
           type="arc"
           rx="29.209877"
           d="m 387.83435,-482.97366 c 0.008,9.41101 -7.61725,17.047 -17.02826,17.05481 -9.4126,0.005 -17.04858,-7.61804 -17.05487,-17.03137 0,-0.007 0,-0.0164 0,-0.0234 -0.006,-9.4118 7.61725,-17.04779 17.02985,-17.05487 9.41101,-0.008 17.047,7.61725 17.05328,17.02905 0,0.009 0,0.0164 0,0.0258 z"
           style="fill:#ffffff"
           inkscape:connector-curvature="0" />
        <g
           id="g6398_1_"
           transform="translate(-23.9521,-87.92102)">
          <path
             id="path6400_1_"
             d="m 394.47845,-413.72311 c -5.17194,0 -9.55005,1.8031 -13.13293,5.41333 -3.67657,3.73358 -5.5141,8.15161 -5.5141,13.25714 0,5.10315 1.83752,9.48993 5.5141,13.1618 3.67505,3.67188 8.05475,5.50787 13.13293,5.50787 5.14069,0 9.5954,-1.85236 13.36572,-5.55316 3.55005,-3.51721 5.32819,-7.88995 5.32819,-13.11652 0,-5.22974 -1.8078,-9.64697 -5.42194,-13.25714 -3.61407,-3.61022 -8.03912,-5.41332 -13.27197,-5.41332 z m 0.0453,3.35858 c 4.23749,0 7.836,1.49457 10.79694,4.48285 2.99066,2.95551 4.48444,6.56415 4.48444,10.82904 0,4.29376 -1.46252,7.85626 -4.39069,10.68756 -3.08594,3.05005 -6.7157,4.57269 -10.89069,4.57269 -4.17505,0 -7.7735,-1.50781 -10.79541,-4.5274 -3.02191,-3.01721 -4.53284,-6.59613 -4.53284,-10.73285 0,-4.14069 1.52655,-7.74933 4.58124,-10.82904 2.92817,-2.98828 6.50946,-4.48285 10.74701,-4.48285 z"
             inkscape:connector-curvature="0" />
          <g
             id="g6402_1_">
            <path
               id="path6404_1_"
               d="m 401.55505,-399.47849 -13.57037,0 0,3.2149 13.57037,0 0,-3.2149 z m 0,6.00086 -13.57037,0 0,3.21405 13.57037,0 0,-3.21405 z"
               inkscape:connector-curvature="0" />
          </g>
        </g>
      </g>
      <g
         id="g398">
        <circle
           cx="491.9473"
           cy="15.31396"
           r="10.80615"
           id="circle400"
           style="fill:#ffffff" />
        <g
           id="g402">
          <path
             d="m 495.07474,12.18701 c 0,-0.4165 -0.33789,-0.75342 -0.75391,-0.75342 l -4.77246,0 c -0.41602,0 -0.75391,0.33691 -0.75391,0.75342 l 0,4.77295 1.33105,0 0,5.65234 3.61719,0 0,-5.65234 1.33203,0 0,-4.77295 1e-5,0 z"
             id="path404"
             inkscape:connector-curvature="0" />
          <circle
             cx="491.9346"
             cy="9.1723604"
             r="1.63232"
             id="circle406" />
        </g>
        <path
           d="m 491.91946,3.40771 c -3.23145,0 -5.96777,1.12744 -8.20703,3.38379 -2.29785,2.33301 -3.44629,5.09521 -3.44629,8.28418 0,3.18897 1.14844,5.93213 3.44629,8.22705 2.29785,2.29443 5.03418,3.44189 8.20703,3.44189 3.21289,0 5.99805,-1.15674 8.35449,-3.47168 2.21973,-2.19678 3.3291,-4.92969 3.3291,-8.19727 0,-3.26758 -1.12891,-6.02832 -3.3877,-8.28418 -2.25878,-2.25633 -5.02342,-3.38378 -8.29589,-3.38378 z m 0.0303,2.09961 c 2.64844,0 4.89648,0.93359 6.74609,2.80078 1.87012,1.84717 2.80469,4.10352 2.80469,6.76758 0,2.68359 -0.91504,4.91113 -2.74609,6.68066 -1.92773,1.90576 -4.19629,2.8584 -6.80469,2.8584 -2.61035,0 -4.85938,-0.94287 -6.74805,-2.8291 -1.88867,-1.88672 -2.83301,-4.12305 -2.83301,-6.70996 0,-2.58643 0.9541,-4.84229 2.8623,-6.76758 1.83106,-1.86718 4.07032,-2.80078 6.71876,-2.80078 z"
           id="path408"
           style="clip-rule:evenodd;fill-rule:evenodd"
           inkscape:connector-curvature="0" />
      </g>
    </g>
  </g>
</svg>
